<?xml version="1.0" encoding="UTF-8"?>
<svg width="400" height="400" version="1.1" viewBox="0 0 400 400" xmlns="http://www.w3.org/2000/svg">
 <rect width="400" height="400" fill="#17bbf2" stroke-width=".92743"/>
 <path d="m309.39 186.25-98.78-99.833c-5.83-5.8921-15.38-5.8921-21.21 0l-98.79 99.833c-5.83 5.892-10.61 17.545-10.61 25.883v90.959c0 8.337 6.75 15.159 15 15.159h92.27l-40.63-41.063c-2.09 0.728-4.32 1.142-6.64 1.142-11.3 0-20.5-9.298-20.5-20.718s9.2-20.718 20.5-20.718 20.5 9.298 20.5 20.718c0 2.355-0.41 4.609-1.13 6.721l31.63 31.967v-117.12c-6.8-3.375-11.5-10.43-11.5-18.586 0-11.42 9.2-20.718 20.5-20.718s20.5 9.298 20.5 20.718c0 8.156-4.7 15.211-11.5 18.586v82.136l31.46-31.795c-0.62-1.981-0.96-4.083-0.96-6.266 0-11.421 9.2-20.719 20.5-20.719s20.5 9.298 20.5 20.719c0 11.42-9.2 20.718-20.5 20.718-2.5 0-4.88-0.475-7.09-1.303l-43.91 44.377v31.209h96c8.25 0 15-6.821 15-15.159v-90.959c0-8.338-4.77-19.981-10.61-25.883v-0.01z" fill="#F2F4F9"/>
</svg>
